<?xml version="1.0" encoding="utf-8"?>
<!-- Generator: Adobe Illustrator 16.0.0, SVG Export Plug-In . SVG Version: 6.00 Build 0)  -->
<!DOCTYPE svg PUBLIC "-//W3C//DTD SVG 1.1//EN" "http://www.w3.org/Graphics/SVG/1.1/DTD/svg11.dtd">
<svg version="1.1" id="图形" xmlns="http://www.w3.org/2000/svg" xmlns:xlink="http://www.w3.org/1999/xlink" x="0px" y="0px"
	 width="1000.637px" height="1000.678px" viewBox="15.167 -16.333 1000.637 1000.678"
	 enable-background="new 15.167 -16.333 1000.637 1000.678" xml:space="preserve">
<symbol  id="向日葵" viewBox="-24.962 -25.778 49.924 51.557">
	<polygon fill="none" points="-24.962,-25.778 24.962,-25.778 24.962,25.778 -24.962,25.778 	"/>
	<g>
		<g>
			<g>
				<path fill-rule="evenodd" clip-rule="evenodd" fill="#FAC618" d="M-18.594-5.135c0.112,0.009,0.224,0.019,0.335,0.021
					c-0.011,0.031-0.023,0.06-0.035,0.092C-18.392-5.065-18.492-5.105-18.594-5.135z"/>
				<path fill-rule="evenodd" clip-rule="evenodd" fill="#FAC618" d="M20.912,5.603c-0.856-0.321-1.832-0.482-2.797-0.489
					c0.057-0.179,0.09-0.366,0.14-0.548C19.194,4.72,20.403,4.61,20.912,5.603z"/>
				<path fill-rule="evenodd" clip-rule="evenodd" fill="#FAC618" d="M13.789,15.059c0.229,0.343,0.373,0.747,0.39,1.198
					c-0.126-0.3-0.401-0.469-0.379-0.758C13.795,15.354,13.794,15.209,13.789,15.059z"/>
				<path fill-rule="evenodd" clip-rule="evenodd" fill="#FAC618" d="M15.027-12.464c-0.132,0.158-0.256,0.322-0.371,0.49
					c0.01-0.039,0.01-0.083,0.024-0.116C14.801-12.226,14.912-12.341,15.027-12.464z"/>
				<path fill-rule="evenodd" clip-rule="evenodd" fill="#FAC618" d="M-16.175,9.876c0.101-0.104,0.203-0.205,0.284-0.334
					c0.031,0.043,0.06,0.087,0.09,0.131C-15.935,9.712-16.063,9.775-16.175,9.876z"/>
				<path fill-rule="evenodd" clip-rule="evenodd" fill="#FAC618" d="M8.862-15.478c-0.057,0.106-0.119,0.211-0.177,0.314
					c-0.127-0.062-0.254-0.121-0.382-0.182C8.496-15.371,8.682-15.413,8.862-15.478z"/>
				<path fill-rule="evenodd" clip-rule="evenodd" fill="#7C5C1A" d="M-8.489,13.873c-0.156-0.636-1.219-1.038-2.252-1.046
					c0.002-0.001,0.002-0.003,0.005-0.006c-0.768-0.9-1.741-1.055-2.568-0.883c0.241-0.274,0.446-0.593,0.393-1.035l-0.012,0.142
					c0.025-0.288,0.035-0.434,0.059-0.722c-0.58-0.048-0.979-0.513-1.402-0.694c-0.51,0.062-1.073-0.087-1.533,0.044
					c-0.031-0.044-0.059-0.088-0.09-0.131c0.01-0.015,0.023-0.023,0.033-0.039c0.445-0.108,1.197-0.647,1.116-1.222
					c-0.089-0.634-0.434-1.015-0.881-1.208c-0.02-0.259-0.063-0.445-0.151-0.477c-0.806-0.269-1.3-0.809-1.914-1.338l0.629-0.799
					c0.045-0.58-1.09-0.961-0.73-1.805c0.352-0.83,0.719-1.934,0.212-2.289c0.018-0.591,0.259-1.16,0.109-1.764
					c0.011-0.145,0.018-0.217,0.018-0.217s-0.006,0.072-0.018,0.217c0.001-0.041,0-0.084-0.007-0.124
					c-0.122-1.699,0.239-3.068-0.585-3.416c-0.077-0.04-0.157-0.054-0.235-0.085c0.012-0.032,0.024-0.061,0.035-0.092
					c0.757,0.016,1.512-0.059,2.198-0.229l0.114-1.444c0.338-0.557,0.649-0.824,0.984-1.378l0.715-1.692
					c0.003-0.03,0.005-0.062,0.007-0.092c0.322-0.04,0.644-0.089,0.957-0.142c-0.299,0.124-0.712-0.199-0.917-0.347
					c0.006-0.291,0.016-0.59,0.015-0.881c0.699,0.34,1.686,0.56,2.017,0.01c0.181-0.299,0.277-0.685,0.297-1.07
					c0.21,0.055,0.431,0.058,0.664-0.023c0.793-0.266,1.126-1.069,1.09-1.898c0.788,0.066,1.665-0.064,2.361-0.28l1.469-0.174
					c0.231-0.549,0.322-1.04,0.315-1.504c0.465,0.038,0.957,0.154,1.199,0.749c0.201-0.256,0.343-0.523,0.455-0.791
					c0.412,0.186,1.726-0.153,2.484,0.443c0.023-0.059,0.037-0.119,0.056-0.181c0.102,0.049,0.207,0.069,0.319,0.045
					c0.418-0.081,0.722-0.29,0.963-0.545c0.385,0.292,1.348,0.604,1.866,0.659c0.508,0.053,0.864-0.203,1.105-0.629
					c-0.003,0.24,0.008,0.479,0.052,0.704c0.244,0.603,1.402,0.692,2.317,0.186c1.14,0.089,2.379,0.43,3.458,0.274
					c0.128,0.061,0.255,0.12,0.382,0.182c0.01,0.008,0.02,0.014,0.03,0.018c-0.259,0.306-0.362,0.715-0.225,1.271
					c0.156,0.632,1.219,1.038,2.251,1.045c-0.001,0.003-0.003,0.006-0.005,0.007c0.468,0.549,1.016,0.813,1.56,0.902
					c-0.059,0.203-0.079,0.417-0.01,0.659c-0.011,0.145,0.747-0.233,0.998,0.225c-0.01,0.145,0.124,0.3-0.322,0.409
					c0.354-0.06,0.691,0.091,0.975,0.132c-0.182,0.673-0.189,1.461,0.336,1.722c0.345,0.171,0.641,0.226,0.903,0.202
					c-0.015,0.236-0.003,0.483,0.04,0.744c-0.014,0.146-0.19,0.567,0.099,0.591c0.587,0.047,1.21,0.238,1.755,0.263
					c0.083,0.165,0.157,0.33,0.233,0.496l-1.529-0.121c0.804,0.272,1.299,0.811,1.914,1.339l-0.63,0.802
					c-0.045,0.578,1.089,0.959,0.73,1.804c-0.282,0.832-1.554,2.187-0.467,3.146c0.297,0.263,0.624,0.456,0.96,0.622
					c-0.046,0.01-0.098,0.015-0.14,0.023c-0.912,0.514-1.292,1.646-1.074,2.54c0.15,0.599,0.618,0.792,1.187,0.888
					c-0.05,0.182-0.083,0.369-0.14,0.548c-0.71-0.003-1.412,0.07-2.054,0.231l-0.114,1.443c-0.334,0.557-0.646,0.823-0.983,1.381
					l-0.656,1.545c-0.441,0.207-0.889,0.469-1.408,0.619c0,0-0.021,0.287-0.033,0.434c-0.232,0.383-0.584,0.623-0.852,0.966
					c-0.082-0.001-0.162-0.006-0.246,0.003l0.004-0.036c-0.022,0.013-0.037,0.032-0.057,0.048c-0.324,0.041-0.655,0.139-0.99,0.307
					c-0.083,0.068-0.087,0.189-0.076,0.33c-0.61,0.436-1.039,1.16-0.971,1.896c-0.663,0.005-1.352,0.128-1.92,0.303l-1.47,0.175
					c-0.231,0.545-0.325,1.036-0.316,1.504c-0.466-0.041-0.958-0.154-1.199-0.751c-0.202,0.258-0.344,0.521-0.456,0.792
					c-0.416-0.186-1.728,0.152-2.485-0.443c-0.19,0.514-0.323,1.05-0.416,1.603c-0.191,0.013-0.382,0.026-0.577,0.035
					c-0.05-0.295-0.12-0.588-0.23-0.86c-0.268-0.313-1.401-0.695-1.978-0.756c-0.508-0.055-0.864,0.201-1.104,0.629
					c0.002-0.24-0.009-0.479-0.055-0.707c-0.243-0.602-1.401-0.69-2.316-0.184c-1.329-0.105-2.798-0.556-3.985-0.154
					c-0.051-0.024-0.097-0.055-0.145-0.078C-8.538,15.063-8.312,14.59-8.489,13.873z"/>
				<path fill-rule="evenodd" clip-rule="evenodd" fill="#231815" d="M-6.572,10.886c-0.121-0.491-0.944-0.803-1.745-0.811
					c0.001,0,0.001-0.002,0.004-0.004c-0.596-0.697-1.35-0.818-1.992-0.686c0.188-0.212,0.346-0.457,0.304-0.803l-0.008,0.111
					c0.02-0.225,0.027-0.335,0.045-0.561c-0.449-0.037-0.759-0.396-1.086-0.537c-0.396,0.046-0.831-0.067-1.188,0.035
					c-0.024-0.035-0.047-0.069-0.07-0.103c0.007-0.013,0.017-0.02,0.025-0.03c0.345-0.084,0.928-0.501,0.864-0.947
					c-0.067-0.49-0.336-0.785-0.682-0.937c-0.015-0.2-0.05-0.345-0.118-0.368c-0.624-0.209-1.007-0.627-1.483-1.038l0.487-0.619
					c0.035-0.452-0.845-0.745-0.565-1.398c0.272-0.645,0.557-1.5,0.164-1.774c0.014-0.459,0.201-0.9,0.084-1.367
					c0.01-0.113,0.014-0.168,0.014-0.168s-0.004,0.055-0.014,0.168c0.003-0.033,0-0.066-0.004-0.096
					c-0.096-1.318,0.185-2.38-0.454-2.65c-0.06-0.031-0.122-0.042-0.182-0.066c0.009-0.023,0.019-0.046,0.026-0.07
					c0.588,0.013,1.172-0.045,1.704-0.178l0.088-1.119c0.262-0.432,0.503-0.639,0.763-1.068l0.555-1.313
					c0.003-0.023,0.004-0.047,0.006-0.07c0.25-0.031,0.499-0.068,0.742-0.109C-10.521-7.595-10.841-7.845-11-7.96
					c0.005-0.226,0.013-0.457,0.012-0.682c0.541,0.262,1.307,0.434,1.563,0.006c0.14-0.23,0.213-0.529,0.229-0.829
					c0.164,0.041,0.334,0.044,0.516-0.017c0.615-0.208,0.873-0.83,0.844-1.474c0.611,0.052,1.29-0.05,1.831-0.217l1.14-0.134
					c0.179-0.426,0.249-0.807,0.244-1.167c0.359,0.03,0.741,0.122,0.93,0.581c0.156-0.2,0.266-0.404,0.353-0.613
					c0.319,0.143,1.336-0.118,1.926,0.344c0.018-0.046,0.028-0.092,0.043-0.14c0.079,0.036,0.16,0.052,0.247,0.034
					c0.324-0.064,0.561-0.225,0.747-0.423c0.298,0.226,1.045,0.469,1.446,0.511c0.395,0.041,0.67-0.156,0.857-0.486
					c-0.002,0.186,0.006,0.369,0.04,0.546c0.189,0.465,1.087,0.537,1.796,0.143c0.885,0.07,1.845,0.335,2.682,0.214
					c0.099,0.047,0.197,0.094,0.296,0.142c0.006,0.003,0.015,0.009,0.023,0.013c-0.2,0.237-0.281,0.554-0.175,0.985
					c0.121,0.49,0.944,0.805,1.746,0.81C8.334-9.812,8.334-9.809,8.332-9.809c0.364,0.426,0.787,0.632,1.209,0.699
					C9.496-8.95,9.479-8.784,9.534-8.597c-0.009,0.111,0.579-0.182,0.774,0.173C10.3-8.312,10.403-8.19,10.058-8.106
					c0.274-0.046,0.536,0.07,0.756,0.102c-0.141,0.523-0.147,1.134,0.26,1.336c0.268,0.133,0.497,0.174,0.701,0.156
					c-0.011,0.184-0.002,0.375,0.031,0.578c-0.01,0.112-0.148,0.439,0.076,0.457c0.455,0.037,0.938,0.186,1.359,0.203
					c0.064,0.127,0.123,0.256,0.182,0.386l-1.186-0.095c0.623,0.212,1.007,0.629,1.484,1.039l-0.488,0.621
					c-0.035,0.447,0.844,0.742,0.566,1.398c-0.22,0.645-1.205,1.695-0.363,2.439c0.231,0.203,0.484,0.354,0.745,0.481
					c-0.036,0.007-0.076,0.01-0.108,0.019c-0.707,0.396-1.002,1.275-0.833,1.969c0.116,0.464,0.479,0.613,0.92,0.688
					c-0.039,0.142-0.064,0.287-0.108,0.425C13.5,4.094,12.957,4.151,12.46,4.274l-0.089,1.12c-0.259,0.433-0.502,0.638-0.763,1.069
					l-0.508,1.198c-0.342,0.162-0.69,0.364-1.092,0.479c0,0-0.017,0.225-0.025,0.336C9.803,8.775,9.53,8.961,9.323,9.227
					c-0.064,0-0.126-0.003-0.191,0.003l0.003-0.028C9.118,9.212,9.106,9.227,9.091,9.237C8.84,9.271,8.582,9.345,8.323,9.475
					C8.259,9.529,8.256,9.624,8.265,9.732c-0.474,0.337-0.806,0.899-0.753,1.47c-0.514,0.002-1.048,0.1-1.488,0.234l-1.14,0.136
					c-0.181,0.423-0.252,0.805-0.244,1.165c-0.361-0.031-0.743-0.12-0.93-0.581c-0.157,0.199-0.268,0.403-0.354,0.612
					c-0.323-0.143-1.34,0.119-1.927-0.343c-0.148,0.398-0.251,0.814-0.323,1.243c-0.149,0.009-0.296,0.02-0.447,0.026
					c-0.038-0.229-0.094-0.455-0.179-0.668c-0.208-0.242-1.087-0.538-1.532-0.585c-0.395-0.043-0.671,0.156-0.857,0.486
					c0.002-0.186-0.006-0.369-0.042-0.547c-0.188-0.467-1.087-0.537-1.796-0.143c-1.03-0.083-2.168-0.43-3.091-0.119
					c-0.038-0.02-0.073-0.044-0.11-0.062C-6.61,11.81-6.435,11.442-6.572,10.886z"/>
				<path fill-rule="evenodd" clip-rule="evenodd" fill="#FAC618" d="M-5.751,16.647c-0.083-0.025-0.164-0.054-0.248-0.08
					c0.332-0.365,0.702-0.695,1.155-0.949C-5.228,15.833-5.521,16.199-5.751,16.647z"/>
				<path fill-rule="evenodd" clip-rule="evenodd" fill="#FAC618" d="M15.947,6.788c0.153,0.143,0.313,0.26,0.476,0.363
					C16.252,7.063,16.088,6.952,15.947,6.788z"/>
				<path fill="#FAC618" d="M18.549-2.552c0.029,0.159,0.069,0.315,0.094,0.477c-0.3-0.118-0.589-0.291-0.854-0.579
					C18.038-2.605,18.294-2.579,18.549-2.552z"/>
				<path fill="#FAC618" d="M-19.034-0.89c0.005-0.077,0.001-0.154,0.006-0.233c0.119,0.075,0.236,0.163,0.358,0.216
					C-18.792-0.894-18.912-0.894-19.034-0.89z"/>
				<path fill-rule="evenodd" clip-rule="evenodd" fill="#FAC618" d="M-17.531-1.473C-17.575-1.522-17.596-1.55-17.531-1.473
					L-17.531-1.473z"/>
				<path fill-rule="evenodd" clip-rule="evenodd" fill="#FAC618" d="M-15.947-6.788c-0.151-0.145-0.312-0.26-0.475-0.363
					C-16.25-7.062-16.086-6.952-15.947-6.788z"/>
				<path fill-rule="evenodd" clip-rule="evenodd" fill="#FAC618" d="M5.591-16.372c0.052,0.015,0.103,0.034,0.153,0.05
					c-0.267,0.266-0.555,0.513-0.898,0.703C5.144-15.786,5.386-16.053,5.591-16.372z"/>
				<path fill-rule="evenodd" clip-rule="evenodd" fill="#FAC618" d="M-17.788,2.655c0,0-0.052-0.063-0.086-0.105
					C-17.858,2.572-17.84,2.594-17.788,2.655z"/>
				<path fill-rule="evenodd" clip-rule="evenodd" fill="#FAC618" d="M-2.474,16.509c0.24-0.428,0.596-0.684,1.104-0.629
					c0.576,0.061,1.71,0.443,1.978,0.756c0.11,0.272,0.181,0.565,0.23,0.86c0.165,0.991-0.013,2.044-0.529,2.898
					c-0.717,1.69-0.875,3.717-1.884,5.384c0.115-1.446-0.325-3.229-0.814-4.433c-0.32-0.796-0.521-1.993-0.485-3.067
					C-2.617,17.7-2.481,17.094-2.474,16.509z"/>
				<path fill-rule="evenodd" clip-rule="evenodd" fill="#FAC618" d="M1.121,24.827c1.114-0.052,2.123-0.513,2.992-1.186
					C3.731,24.472,2.243,25.204,1.121,24.827z"/>
				<path fill-rule="evenodd" clip-rule="evenodd" fill="#FAC618" d="M4.416,16.354c-0.021-0.026-0.061-0.039-0.099-0.053
					c0.112-0.271,0.254-0.534,0.456-0.792c0.241,0.597,0.733,0.71,1.199,0.751c0.016,0.824,0.389,1.552,1.066,2.28
					c-0.079,0.79-0.274,1.57-0.655,2.339c-0.538,1.023-1.318,2.021-2.271,2.762c0.005-0.01,0.014-0.021,0.018-0.03
					c0.637-1.175,0.396-2.482,0.153-3.794C4.73,18.683,4.757,17.364,4.416,16.354z"/>
				<path fill="#FAC618" d="M-4.845,15.618C-5.298,15.872-5.667,16.202-6,16.567c-1.004,1.11-1.665,2.537-3.239,3.068
					c-1.182,0.201-2.141,1.287-3.299,1.194c1.54-1.04,1.699-3.068,2.707-4.733c0.299-0.317,0.637-0.512,1-0.633
					C-7.643,15.063-6.174,15.513-4.845,15.618z"/>
				<path fill-rule="evenodd" clip-rule="evenodd" fill="#FAC618" d="M-13.305,11.938c0.827-0.172,1.801-0.018,2.568,0.883
					c-0.003,0.003-0.003,0.005-0.005,0.006c-0.416-0.003-0.83,0.05-1.174,0.191c-0.722,0.456-1.061,1.248-1.247,2.115
					c-1.466,1.46-2.759,3.062-3.11,5.108c-0.374-2.649-0.387-6.146,2.088-7.984c0.145,0.011,0.277,0.167,0.423,0.177
					C-13.633,12.274-13.461,12.114-13.305,11.938z"/>
				<path fill-rule="evenodd" clip-rule="evenodd" fill="#DEB016" d="M7.759,14.582c0.568-0.175,1.257-0.298,1.92-0.303
					c0.015,0.155,0.043,0.31,0.104,0.461c0.244,0.604,1.545,0.707,2.27,0.766c0.754,1.515,0.015,3.495-0.702,5.185
					c0.432-2.238-1.637-3.359-3.497-3.912C7.908,16.054,7.908,15.323,7.759,14.582z"/>
				<path fill-rule="evenodd" clip-rule="evenodd" fill="#DEB016" d="M-17.788,2.655c-0.36,0.844,0.775,1.225,0.73,1.805
					l-0.629,0.799c-0.251-0.215-0.519-0.431-0.841-0.624c-0.844-0.36-1.782,0.438-2.648,0.37c-0.073-0.006-0.132,0.004-0.181,0.022
					c-1.223-0.06-2.446-0.085-3.604-0.034c1.098-1.477,2.801-2.236,4.583-2.434C-19.493,2.601-18.594,2.59-17.788,2.655z"/>
				<path fill-rule="evenodd" clip-rule="evenodd" fill="#DEB016" d="M16.423,7.151c-0.162-0.104-0.322-0.221-0.476-0.363
					l0.114-1.443c0.642-0.161,1.344-0.234,2.054-0.231c0.965,0.007,1.94,0.168,2.797,0.489c0.024,0.044,0.05,0.08,0.069,0.13
					c0.003-0.034,0.01-0.069,0.013-0.101c1.959,0.762,3.25,2.378,2.223,4.938c-0.51-0.913-1.309-1.852-2.441-2.232
					c-0.728-0.31-1.472-0.404-2.193-0.512c-0.023-0.085-0.045-0.172-0.076-0.249C18.285,7.317,17.234,7.576,16.423,7.151z"/>
				<path fill-rule="evenodd" clip-rule="evenodd" fill="#DEB016" d="M-4.845,15.618c0.915-0.507,2.073-0.418,2.316,0.184
					c0.046,0.229,0.057,0.467,0.055,0.707c-0.008,0.585-0.144,1.191-0.4,1.77c-0.599,1.35-1.804,2.523-3.275,2.77
					c-0.3-1.494-0.189-3.246,0.397-4.4C-5.521,16.199-5.228,15.833-4.845,15.618z"/>
				<path fill-rule="evenodd" clip-rule="evenodd" fill="#FAC618" d="M-11.916,13.019c0.345-0.142,0.758-0.194,1.174-0.191
					c1.033,0.008,2.096,0.41,2.252,1.046c0.178,0.717-0.049,1.189-0.485,1.513c-0.873,0.638-2.602,0.668-3.774,0.771
					c-0.045,0.579-0.332,0.556-0.645,0.822c0.047-0.597,0.101-1.239,0.231-1.845C-12.977,14.267-12.638,13.475-11.916,13.019z"/>
				<path fill-rule="evenodd" clip-rule="evenodd" fill="#DEB016" d="M-18.528,4.635c0.322,0.193,0.59,0.409,0.841,0.624
					c0.614,0.529,1.108,1.069,1.914,1.338c0.088,0.031,0.132,0.218,0.151,0.477c-0.486-0.211-1.096-0.196-1.641-0.012
					c-1.34,0.332-1.489,2.213-2.57,2.997c0.578,0.049,0.914-0.507,1.36-0.616c0.867,0.067,1.724,0.28,2.615,0.061
					c-0.01,0.016-0.023,0.024-0.033,0.039c-0.081,0.129-0.184,0.23-0.284,0.334c-0.056,0.05-0.112,0.102-0.163,0.172
					c0,0.002-0.002,0.003-0.003,0.006c-1.226,1.002-3.485,0.707-5.051,1.34c-0.16,0.134-0.448,0.108-0.471,0.399
					c-0.266-0.312-0.099-0.589-0.077-0.881c0.034-0.434,0.493-0.688,0.661-0.966c0.392-1.279,0.229-2.893,1.587-3.512
					c0.198-0.051,0.399-0.07,0.6-0.1c-0.829-0.068-1.563-0.123-2.469-0.197c0.021-0.252-0.145-0.965,0.203-1.11
					c0.049-0.019,0.108-0.028,0.181-0.022C-20.311,5.072-19.372,4.274-18.528,4.635z"/>
				<path fill="#FAC618" d="M4.317,16.302c0.038,0.014,0.078,0.026,0.099,0.053c0.341,1.01,0.314,2.328-0.132,3.463
					c-0.477,1.219-1.434,2.227-2.956,2.406c-0.095-1.516-0.177-3.191,0.088-4.763c0.093-0.553,0.226-1.089,0.416-1.603
					C2.59,16.454,3.901,16.116,4.317,16.302z"/>
				<path fill-rule="evenodd" clip-rule="evenodd" fill="#FAC618" d="M7.565,20.678c-0.022-0.367-0.013-0.729,0.01-1.093
					C7.675,19.948,7.752,20.368,7.565,20.678z"/>
				<path fill-rule="evenodd" clip-rule="evenodd" fill="#FAC618" d="M5.973,16.261c-0.009-0.468,0.085-0.959,0.316-1.504
					l1.47-0.175c0.149,0.741,0.149,1.472,0.095,2.196c-0.071,0.938-0.225,1.867-0.278,2.807c-0.081-0.286-0.172-0.535-0.163-0.664
					c-0.135-0.128-0.256-0.254-0.373-0.38C6.361,17.813,5.988,17.085,5.973,16.261z"/>
				<path fill-rule="evenodd" clip-rule="evenodd" fill="#FAC618" d="M16.162,9.574c-0.714-0.304-1.282-0.131-1.854,0.14
					l0.656-1.545c0.337-0.558,0.649-0.824,0.983-1.381c0.141,0.164,0.305,0.274,0.476,0.363c0.812,0.425,1.862,0.166,2.083,0.425
					c0.031,0.077,0.053,0.164,0.076,0.249c0.375,1.215,0.168,3.047-1,4.043c0.18-0.796-0.144-1.121-0.666-1.254
					c-0.029-0.087-0.053-0.175-0.086-0.26C16.705,10.051,16.441,9.74,16.162,9.574z"/>
				<path fill-rule="evenodd" clip-rule="evenodd" fill="#FAC618" d="M2.477-16.509c-0.241,0.426-0.598,0.682-1.105,0.629
					c-0.519-0.055-1.481-0.367-1.866-0.659c0.796-0.837,0.704-2.394,0.02-3.483c0.058-0.125,0.097-0.258,0.169-0.375
					c0.716-1.688,0.877-3.715,1.881-5.381C1.462-24.331,1.9-22.55,2.388-21.345c0.322,0.797,0.522,1.992,0.487,3.063
					C2.619-17.702,2.483-17.095,2.477-16.509z"/>
				<path fill="#FAC618" d="M-1.121-24.827c-1.112,0.05-2.12,0.51-2.988,1.187C-3.729-24.474-2.241-25.207-1.121-24.827z"/>
				<path fill-rule="evenodd" clip-rule="evenodd" fill="#FAC618" d="M-4.414-16.354c0.021,0.025,0.063,0.036,0.097,0.053
					c-0.112,0.268-0.254,0.535-0.455,0.791c-0.242-0.595-0.734-0.711-1.199-0.749c-0.015-0.825-0.39-1.554-1.066-2.283
					c0.08-0.788,0.274-1.569,0.654-2.333c0.539-1.028,1.319-2.025,2.274-2.765c-0.005,0.008-0.016,0.018-0.018,0.028
					c-0.639,1.175-0.397,2.484-0.157,3.795C-4.729-18.685-4.754-17.366-4.414-16.354z"/>
				<path fill-rule="evenodd" clip-rule="evenodd" fill="#DEB016" d="M10.8-20.29c0.564-0.305,1.125-0.59,1.737-0.539
					C11-19.79,10.838-17.765,9.832-16.097c-0.289,0.309-0.618,0.496-0.97,0.619c-0.181,0.064-0.366,0.106-0.559,0.133
					c-1.079,0.155-2.318-0.186-3.458-0.274c0.344-0.19,0.632-0.438,0.898-0.703c0.946-0.927,1.557-2.159,2.668-2.898
					c0.25-0.165,0.518-0.313,0.827-0.42C9.793-19.731,10.299-20.02,10.8-20.29z"/>
				<path fill-rule="evenodd" clip-rule="evenodd" fill="#FAC618" d="M13.962-14.039c-0.409,0.778-1.434,1.327-1.665,2.119
					c-0.544-0.089-1.092-0.354-1.56-0.902c0.002-0.001,0.004-0.004,0.005-0.007c0.416,0.006,0.83-0.051,1.174-0.19
					c0.721-0.457,1.062-1.247,1.246-2.113c1.467-1.464,2.762-3.065,3.112-5.11c0.239,1.7,0.321,3.744-0.298,5.479
					C15.192-14.889,14.41-14.669,13.962-14.039z"/>
				<path fill="#FAC618" d="M-7.756-14.582c-0.696,0.216-1.573,0.347-2.361,0.28c-0.012-0.266-0.062-0.535-0.147-0.788
					c-0.257-0.9-1.131-1.349-2.096-1.624c-0.077-1.276,0.475-2.707,1.011-3.977c-0.429,2.235,1.636,3.359,3.5,3.912
					C-7.904-16.053-7.906-15.323-7.756-14.582z"/>
				<path fill-rule="evenodd" clip-rule="evenodd" fill="#FAC618" d="M17.059-4.458l0.63-0.802c0.25,0.218,0.517,0.431,0.841,0.626
					c0.846,0.359,1.781-0.44,2.648-0.371c0.075,0.004,0.134-0.004,0.185-0.023c1.219,0.06,2.442,0.084,3.6,0.033
					c-1.471,1.985-4.028,2.689-6.413,2.443c-0.255-0.027-0.511-0.054-0.76-0.103C18.147-3.499,17.014-3.88,17.059-4.458z"/>
				<path fill-rule="evenodd" clip-rule="evenodd" fill="#FAC618" d="M-16.422-7.151c0.163,0.104,0.323,0.219,0.475,0.363
					l-0.114,1.444c-0.686,0.171-1.441,0.245-2.198,0.229c-0.111-0.002-0.223-0.012-0.335-0.021c-0.365-0.107-0.734-0.15-1.11-0.13
					c-2.615-0.496-4.753-2.217-3.513-5.305c0.511,0.914,1.31,1.851,2.441,2.232c0.729,0.307,1.472,0.402,2.191,0.511
					c0.029,0.085,0.049,0.174,0.08,0.252C-18.284-7.317-17.233-7.577-16.422-7.151z"/>
				<path fill-rule="evenodd" clip-rule="evenodd" fill="#FAC618" d="M4.846-15.619c-0.915,0.507-2.073,0.417-2.317-0.186
					c-0.044-0.226-0.055-0.464-0.052-0.704c0.007-0.586,0.143-1.193,0.398-1.773c0.6-1.35,1.804-2.52,3.274-2.766
					c0.325,1.617,0.174,3.543-0.559,4.676C5.386-16.053,5.144-15.786,4.846-15.619z"/>
				<path fill="#FAC618" d="M11.916-13.02c-0.344,0.14-0.758,0.196-1.174,0.19c-1.032-0.007-2.095-0.413-2.251-1.045
					c-0.138-0.557-0.034-0.966,0.225-1.271c0.731-0.876,2.73-0.898,4.032-1.01c0.045-0.58,0.336-0.557,0.647-0.824
					c-0.048,0.597-0.104,1.241-0.233,1.847C12.978-14.267,12.637-13.477,11.916-13.02z"/>
				<path fill-rule="evenodd" clip-rule="evenodd" fill="#FAC618" d="M18.529-4.634c-0.324-0.195-0.591-0.408-0.841-0.626
					c-0.615-0.528-1.11-1.066-1.914-1.339l1.529,0.121l1.074,0.085c1.155,0.092,2.024,0.161,3.183,0.252
					c-0.02,0.252,0.145,0.968-0.198,1.112c-0.051,0.02-0.109,0.027-0.185,0.023C20.311-5.074,19.375-4.274,18.529-4.634z"/>
				<path fill-rule="evenodd" clip-rule="evenodd" fill="#FAC618" d="M-2.11-18.809c-0.333,0.553-0.402,1.424-0.157,2.024
					c-0.02,0.215,0.192,0.605,0.49,0.745c-0.02,0.062-0.033,0.122-0.056,0.181c-0.758-0.597-2.072-0.258-2.484-0.443
					c-0.034-0.017-0.075-0.027-0.097-0.053c-0.34-1.012-0.314-2.33,0.13-3.463c0.477-1.219,1.436-2.226,2.957-2.407
					c0.051,0.818,0.096,1.686,0.088,2.558C-1.555-19.31-1.953-19.067-2.11-18.809z"/>
				<path fill-rule="evenodd" clip-rule="evenodd" fill="#FAC618" d="M-7.564-20.681c0.023,0.367,0.013,0.732-0.007,1.099
					C-7.673-19.946-7.752-20.368-7.564-20.681z"/>
				<path fill-rule="evenodd" clip-rule="evenodd" fill="#FAC618" d="M-5.972-16.26c0.007,0.464-0.084,0.955-0.315,1.504
					l-1.469,0.174c-0.15-0.741-0.148-1.471-0.094-2.196c0.067-0.938,0.221-1.867,0.278-2.804c0.076,0.282,0.168,0.534,0.158,0.658
					c0.137,0.128,0.256,0.257,0.375,0.381C-6.361-17.813-5.986-17.085-5.972-16.26z"/>
				<path fill-rule="evenodd" clip-rule="evenodd" fill="#FAC618" d="M-16.622-10.208c0.613,0.368,1.491,0.363,2.382,0.258
					c-0.002,0.03-0.004,0.062-0.007,0.092l-0.715,1.692c-0.335,0.554-0.646,0.821-0.984,1.378c-0.139-0.164-0.303-0.273-0.475-0.363
					c-0.812-0.426-1.862-0.166-2.082-0.423c-0.031-0.078-0.051-0.167-0.08-0.252c-0.375-1.217-0.166-3.046,1.003-4.045
					c-0.165,0.729,0.091,1.065,0.531,1.216C-16.938-10.485-16.807-10.333-16.622-10.208z"/>
				<path fill-rule="evenodd" clip-rule="evenodd" fill="#FAC618" d="M-17.467-1.397c0.149,0.604-0.092,1.173-0.109,1.764
					c-0.012-0.007-0.015-0.021-0.028-0.025c-1.226-0.607-2.37,0.574-3.622,0.996c-0.986-0.107-1.936-0.31-2.813-0.637
					c-0.557-0.334,0.427-1.713,1.318-1.933c1.082-0.179,2.351,0.38,3.686,0.343c0.122-0.004,0.242-0.004,0.364-0.018
					C-18.382-0.887-17.777-1.13-17.467-1.397z"/>
				<path fill-rule="evenodd" clip-rule="evenodd" fill="#FAC618" d="M-17.467-1.397c0.011-0.145,0.018-0.217,0.018-0.217"/>
				<path fill-rule="evenodd" clip-rule="evenodd" fill="#FAC618" d="M-18.594-5.135c0.102,0.029,0.202,0.069,0.3,0.112
					c0.078,0.031,0.158,0.045,0.235,0.085c0.824,0.348,0.463,1.717,0.585,3.416c0.007,0.04,0.008,0.083,0.007,0.124
					c-0.311,0.268-0.915,0.511-1.203,0.49c-0.123-0.053-0.239-0.141-0.358-0.216c-0.707-0.438-1.358-1.213-1.796-1.996
					c-0.822-0.649-2.268-0.763-3.425-0.854c1.504-0.301,3.058-1.207,4.545-1.291C-19.328-5.285-18.958-5.242-18.594-5.135z
					 M-17.531-1.473C-17.596-1.55-17.575-1.522-17.531-1.473L-17.531-1.473z"/>
				<path fill-rule="evenodd" clip-rule="evenodd" fill="#FAC618" d="M-17.604,0.341c0.013,0.005,0.016,0.019,0.028,0.025
					c0.507,0.355,0.14,1.459-0.212,2.289c-0.052-0.062-0.07-0.083-0.086-0.105c0.035,0.043,0.086,0.105,0.086,0.105
					c-0.806-0.065-1.705-0.055-2.591-0.096c-0.709-0.032-1.407-0.095-2.04-0.275c-0.266-0.313,0.361-0.842,0.648-0.819
					c0.183-0.022,0.365-0.066,0.545-0.128C-19.974,0.915-18.83-0.267-17.604,0.341z"/>
				<path fill-rule="evenodd" clip-rule="evenodd" fill="#FAC618" d="M20.912,5.603c-0.509-0.992-1.718-0.883-2.657-1.037
					c-0.568-0.096-1.036-0.289-1.187-0.888c-0.218-0.895,0.162-2.026,1.074-2.54c0.042-0.009,0.094-0.014,0.14-0.023
					c0.863,0.428,1.823,0.584,2.792,0.644c0.663,0.929,0.053,2.495-0.08,3.874c-0.003,0.031-0.01,0.066-0.013,0.101
					C20.962,5.683,20.937,5.646,20.912,5.603z"/>
				<path fill-rule="evenodd" clip-rule="evenodd" fill="#DEB016" d="M18.282,1.114c-0.336-0.166-0.663-0.359-0.96-0.622
					c-1.087-0.96,0.185-2.314,0.467-3.146c0.265,0.288,0.554,0.461,0.854,0.579c0.988,0.379,2.128,0.065,3.202,0.599
					c1.11,0.671,1.574,2.163,1.772,3.343c-0.797-0.063-1.67-0.053-2.543-0.108C20.105,1.698,19.146,1.542,18.282,1.114z"/>
				<path fill-rule="evenodd" clip-rule="evenodd" fill="#FAC618" d="M-16.175,9.876c0.112-0.101,0.24-0.164,0.375-0.203
					c0.46-0.131,1.023,0.018,1.533-0.044c0.423,0.182,0.822,0.646,1.402,0.694c-0.023,0.288-0.033,0.434-0.059,0.722l0.012-0.142
					c0.054,0.442-0.151,0.761-0.393,1.035c-0.156,0.176-0.328,0.336-0.456,0.496c-0.146-0.01-0.278-0.166-0.423-0.177
					c-0.3,0.119-0.468,0.397-0.757,0.376c-0.725-0.059-1.437-0.258-2.026-0.162c-0.747,0.232-1.261,1.21-2.007,1.443
					c-0.299,0.121-0.112-0.447-0.099-0.591c0.959-1.085,1.905-2.028,2.732-3.271c0.001-0.003,0.003-0.004,0.003-0.006
					C-16.287,9.978-16.23,9.926-16.175,9.876z"/>
				<path fill-rule="evenodd" clip-rule="evenodd" fill="#FAC618" d="M-14.741,8.281c0.081,0.574-0.671,1.113-1.116,1.222
					c-0.891,0.22-1.748,0.007-2.615-0.061c-0.446,0.109-0.782,0.665-1.36,0.616c1.081-0.784,1.23-2.665,2.57-2.997
					c0.545-0.185,1.154-0.199,1.641,0.012C-15.175,7.267-14.83,7.647-14.741,8.281z"/>
				<path fill-rule="evenodd" clip-rule="evenodd" fill="#DEB016" d="M12.866,10.767c0.012-0.146,0.033-0.434,0.033-0.434
					c0.52-0.15,0.967-0.412,1.408-0.619c0.572-0.271,1.141-0.443,1.854-0.14c0.279,0.166,0.543,0.477,0.668,0.78
					c0.033,0.085,0.057,0.173,0.086,0.26c0.604,1.723,0.341,3.502,0.2,5.293c0.03-1.822-1.243-3.021-2.832-3.614
					c-0.02-0.134-0.021-0.263-0.051-0.398C14.143,11.16,13.267,11.235,12.866,10.767z"/>
				<path fill-rule="evenodd" clip-rule="evenodd" fill="#FAC618" d="M12.918,11.937c-0.295-0.147-0.597-0.201-0.903-0.204
					c0.268-0.343,0.619-0.583,0.852-0.966c0.4,0.469,1.276,0.394,1.367,1.128c0.03,0.136,0.031,0.265,0.051,0.398
					c0.2,1.339-0.002,2.647-0.105,3.964c-0.017-0.451-0.16-0.855-0.39-1.198C13.771,13.873,13.769,12.651,12.918,11.937z"/>
				<path fill-rule="evenodd" clip-rule="evenodd" fill="#FAC618" d="M11.772,11.699l-0.004,0.036
					c-0.017,0.002-0.035,0.009-0.053,0.012C11.735,11.731,11.75,11.712,11.772,11.699z"/>
				<path fill-rule="evenodd" clip-rule="evenodd" fill="#FAC618" d="M9.783,14.74c-0.062-0.151-0.09-0.306-0.104-0.461
					c-0.068-0.735,0.36-1.46,0.971-1.896c-0.011-0.141-0.007-0.262,0.076-0.33c0.335-0.168,0.666-0.266,0.99-0.307
					c0.018-0.003,0.036-0.01,0.053-0.012c0.084-0.009,0.164-0.004,0.246-0.003c0.307,0.003,0.608,0.057,0.903,0.204
					c0.851,0.715,0.853,1.937,0.871,3.122c0.005,0.15,0.006,0.296,0.011,0.44c-0.022,0.289,0.253,0.458,0.379,0.758
					c-0.015,0.146-0.185,0.421-0.193,0.566c0.22,0.891,0.731,1.806,1.563,2.309c-0.41-0.324-1.146-0.237-1.556-0.56
					c-0.943-0.948-0.663-2.673-1.94-3.066C11.328,15.447,10.027,15.345,9.783,14.74z"/>
				<path fill-rule="evenodd" clip-rule="evenodd" fill="#FAC618" d="M15.217-7.827c0.12,0.302,0.423,0.434,0.699,0.348
					c0.746-0.231,1.881,0.148,2.095-0.706c0.12-0.579,0.271-1.119,0.407-1.659c0.875-0.352,1.811-0.418,2.779,0.018
					c0.568,0.191,0.811,0.795,0.755,1.518c-1.292-0.251-2.762-0.075-3.868,1.002c-0.264,0.283-0.619,0.352-1.014,0.334
					c-0.545-0.024-1.168-0.216-1.755-0.263C15.026-7.26,15.203-7.681,15.217-7.827z"/>
				<path fill-rule="evenodd" clip-rule="evenodd" fill="#FAC618" d="M15.177-8.571c-0.263,0.023-0.559-0.031-0.903-0.202
					c-0.525-0.261-0.518-1.049-0.336-1.722c0.189,0.024,0.354,0.005,0.483-0.16c0.297-0.375,0.132-0.906,0.235-1.318
					c0.115-0.168,0.239-0.332,0.371-0.49c0.123-0.129,0.251-0.268,0.366-0.394c1.125-1.103,2.699-1.743,4.236-1.022
					c-1.148-0.238-1.819,0.875-2.177,1.719c-0.212,0.465-0.399,1.049-0.61,1.61c-0.084,0.022-0.17,0.041-0.25,0.065
					C15.651-10.103,15.227-9.415,15.177-8.571z"/>
				<path fill-rule="evenodd" clip-rule="evenodd" fill="#DEB016" d="M14.681-12.09c-0.015,0.033-0.015,0.077-0.024,0.116
					c-0.104,0.412,0.062,0.943-0.235,1.318c-0.13,0.165-0.294,0.185-0.483,0.16c-0.283-0.041-0.62-0.191-0.975-0.132
					c0.446-0.109,0.313-0.265,0.322-0.409c-0.251-0.458-1.009-0.08-0.998-0.225c-0.069-0.242-0.049-0.456,0.01-0.659
					c0.231-0.792,1.256-1.341,1.665-2.119c0.448-0.63,1.23-0.85,2.015-0.726c0.075,0.014,0.15,0.011,0.225,0.028
					c-0.181,0.423-0.201,0.714-0.238,1.146c-0.162,0.271-0.357,0.503-0.569,0.733c-0.115,0.126-0.243,0.265-0.366,0.394
					C14.912-12.341,14.801-12.226,14.681-12.09z"/>
				<path fill-rule="evenodd" clip-rule="evenodd" fill="#FAC618" d="M15.916-7.479c-0.276,0.086-0.579-0.046-0.699-0.348
					c-0.043-0.261-0.055-0.508-0.04-0.744c0.05-0.844,0.475-1.531,1.416-1.914c0.08-0.024,0.166-0.043,0.25-0.065
					c0.684-0.185,1.428-0.313,1.867-0.927c-0.048,0.571-0.16,1.103-0.292,1.633c-0.136,0.54-0.287,1.08-0.407,1.659
					C17.797-7.331,16.662-7.711,15.916-7.479z"/>
				<path fill-rule="evenodd" clip-rule="evenodd" fill="#DEB016" d="M-0.495-16.539c-0.241,0.255-0.545,0.464-0.963,0.545
					c-0.112,0.024-0.217,0.004-0.319-0.045c-0.298-0.14-0.51-0.53-0.49-0.745c-0.245-0.601-0.176-1.472,0.157-2.024
					c0.157-0.259,0.556-0.501,0.871-0.858c0.024-0.031,0.055-0.057,0.079-0.087c0.022-0.29,0.335-0.556,0.214-0.855
					c0.18,0.169,0.337,0.37,0.471,0.587C0.209-18.933,0.301-17.376-0.495-16.539z"/>
				<path fill-rule="evenodd" clip-rule="evenodd" fill="#DEB016" d="M-14.204-11.327c0.004,0.005,0.013,0.005,0.018,0.008
					c0.001,0.291-0.008,0.59-0.015,0.881c0.205,0.147,0.618,0.471,0.917,0.347c-0.313,0.053-0.635,0.102-0.957,0.142
					c-0.891,0.105-1.769,0.11-2.382-0.258c-0.185-0.125-0.316-0.277-0.428-0.447c-0.633-0.954-0.281-2.508-1.454-3.344
					c-0.278-0.166-0.749,0.23-1.003-0.226c1.302,0.104,2.762,0.075,4.041,0.469c0.329,0.128,0.568,0.306,0.751,0.52
					C-15.094-12.54-14.999-11.526-14.204-11.327z"/>
				<path fill-rule="evenodd" clip-rule="evenodd" fill="#FAC618" d="M-13.118-14.008c0.06,0.674,0.564,1.454,1.247,1.628
					c-0.021,0.386-0.117,0.771-0.297,1.07c-0.331,0.55-1.318,0.33-2.017-0.01c-0.005-0.003-0.014-0.003-0.018-0.008
					c-0.795-0.199-0.89-1.213-0.511-1.909c0.03-0.055,0.056-0.112,0.093-0.161c0.182-0.425,0.226-1,0.26-1.438
					c0.013-0.143-0.41-0.324-0.399-0.47c-0.051-1.168-1.117-2.416-2.275-2.507c0.735-0.09,1.281,0.392,1.824,0.87
					c0.612,0.63,1.365,1.224,2.015,1.894C-13.211-14.694-13.2-14.343-13.118-14.008z"/>
				<path fill-rule="evenodd" clip-rule="evenodd" fill="#FAC618" d="M-13.118-16.892c-0.069-0.015-0.136-0.029-0.202-0.041
					C-13.244-16.929-13.172-16.919-13.118-16.892z"/>
				<path fill-rule="evenodd" clip-rule="evenodd" fill="#DEB016" d="M-10.265-15.09c0.086,0.253,0.136,0.522,0.147,0.788
					c0.036,0.829-0.297,1.633-1.09,1.898c-0.233,0.081-0.454,0.078-0.664,0.023c-0.683-0.174-1.188-0.954-1.247-1.628
					c-0.082-0.335-0.093-0.687-0.08-1.04c0.019-0.586,0.112-1.177,0.157-1.721c0.004-0.067-0.029-0.101-0.077-0.123
					c0.254,0.051,0.509,0.109,0.758,0.178C-11.396-16.438-10.521-15.99-10.265-15.09z"/>
			</g>
		</g>
		<path fill-rule="evenodd" clip-rule="evenodd" fill="#9D864D" d="M-1.461,8.087c0-0.276-0.223-0.5-0.5-0.5
			c-0.275,0-0.5,0.224-0.5,0.5s0.225,0.5,0.5,0.5C-1.684,8.587-1.461,8.363-1.461,8.087z"/>
		<path fill-rule="evenodd" clip-rule="evenodd" fill="#9D864D" d="M-3.961,7.337c0-0.275-0.223-0.5-0.5-0.5
			c-0.275,0-0.5,0.225-0.5,0.5c0,0.277,0.225,0.5,0.5,0.5C-4.184,7.837-3.961,7.614-3.961,7.337z"/>
		<path fill-rule="evenodd" clip-rule="evenodd" fill="#9D864D" d="M-2.211,5.087c0-0.276-0.223-0.5-0.5-0.5
			c-0.275,0-0.5,0.224-0.5,0.5s0.225,0.5,0.5,0.5C-2.434,5.587-2.211,5.363-2.211,5.087z"/>
		<path fill-rule="evenodd" clip-rule="evenodd" fill="#9D864D" d="M-4.961,5.087c0-0.276-0.223-0.5-0.5-0.5
			c-0.275,0-0.5,0.224-0.5,0.5s0.225,0.5,0.5,0.5C-5.184,5.587-4.961,5.363-4.961,5.087z"/>
		<path fill-rule="evenodd" clip-rule="evenodd" fill="#9D864D" d="M-6.711,3.837c0-0.275-0.223-0.5-0.5-0.5
			c-0.275,0-0.5,0.225-0.5,0.5c0,0.276,0.225,0.5,0.5,0.5C-6.934,4.337-6.711,4.113-6.711,3.837z"/>
		<path fill-rule="evenodd" clip-rule="evenodd" fill="#9D864D" d="M-7.711,5.587c0-0.276-0.223-0.5-0.5-0.5
			c-0.275,0-0.5,0.224-0.5,0.5s0.225,0.5,0.5,0.5C-7.934,6.087-7.711,5.863-7.711,5.587z"/>
		<path fill-rule="evenodd" clip-rule="evenodd" fill="#9D864D" d="M-9.211,2.337c0-0.275-0.223-0.5-0.5-0.5
			c-0.275,0-0.5,0.225-0.5,0.5c0,0.277,0.225,0.5,0.5,0.5C-9.434,2.837-9.211,2.614-9.211,2.337z"/>
		<path fill-rule="evenodd" clip-rule="evenodd" fill="#9D864D" d="M-8.711,0.587c0-0.276-0.222-0.5-0.5-0.5
			c-0.275,0-0.5,0.224-0.5,0.5s0.225,0.5,0.5,0.5C-8.934,1.087-8.711,0.863-8.711,0.587z"/>
		<path fill-rule="evenodd" clip-rule="evenodd" fill="#9D864D" d="M-7.711,2.337c0-0.275-0.223-0.5-0.5-0.5
			c-0.275,0-0.5,0.225-0.5,0.5c0,0.277,0.225,0.5,0.5,0.5C-7.934,2.837-7.711,2.614-7.711,2.337z"/>
		<path fill-rule="evenodd" clip-rule="evenodd" fill="#9D864D" d="M-5.211,3.087c0-0.276-0.223-0.5-0.5-0.5
			c-0.275,0-0.5,0.224-0.5,0.5s0.225,0.5,0.5,0.5C-5.434,3.587-5.211,3.363-5.211,3.087z"/>
		<path fill-rule="evenodd" clip-rule="evenodd" fill="#9D864D" d="M0.789,3.837c0-0.275-0.223-0.5-0.5-0.5
			c-0.275,0-0.5,0.225-0.5,0.5c0,0.276,0.225,0.5,0.5,0.5C0.566,4.337,0.789,4.113,0.789,3.837z"/>
		<path fill-rule="evenodd" clip-rule="evenodd" fill="#9D864D" d="M1.289,7.837c0-0.275-0.223-0.5-0.5-0.5
			c-0.275,0-0.5,0.225-0.5,0.5c0,0.276,0.225,0.5,0.5,0.5C1.066,8.337,1.289,8.113,1.289,7.837z"/>
		<path fill-rule="evenodd" clip-rule="evenodd" fill="#9D864D" d="M6.539,8.837c0-0.275-0.223-0.5-0.5-0.5
			c-0.275,0-0.5,0.225-0.5,0.5c0,0.276,0.225,0.5,0.5,0.5C6.316,9.337,6.539,9.113,6.539,8.837z"/>
		<path fill-rule="evenodd" clip-rule="evenodd" fill="#9D864D" d="M4.039,8.337c0-0.275-0.223-0.5-0.5-0.5
			c-0.275,0-0.5,0.225-0.5,0.5c0,0.277,0.225,0.5,0.5,0.5C3.816,8.837,4.039,8.614,4.039,8.337z"/>
		<path fill-rule="evenodd" clip-rule="evenodd" fill="#9D864D" d="M3.039,10.337c0-0.275-0.223-0.5-0.5-0.5
			c-0.275,0-0.5,0.225-0.5,0.5c0,0.277,0.225,0.5,0.5,0.5C2.816,10.837,3.039,10.614,3.039,10.337z"/>
		<path fill-rule="evenodd" clip-rule="evenodd" fill="#9D864D" d="M0.539,10.337c0-0.275-0.223-0.5-0.5-0.5
			c-0.275,0-0.5,0.225-0.5,0.5c0,0.277,0.225,0.5,0.5,0.5C0.316,10.837,0.539,10.614,0.539,10.337z"/>
		<path fill-rule="evenodd" clip-rule="evenodd" fill="#9D864D" d="M-2.461,10.837c0-0.275-0.223-0.5-0.5-0.5
			c-0.275,0-0.5,0.225-0.5,0.5c0,0.276,0.225,0.5,0.5,0.5C-2.684,11.337-2.461,11.113-2.461,10.837z"/>
		<path fill-rule="evenodd" clip-rule="evenodd" fill="#9D864D" d="M-4.461,9.087c0-0.276-0.223-0.5-0.5-0.5
			c-0.275,0-0.5,0.224-0.5,0.5s0.225,0.5,0.5,0.5C-4.684,9.587-4.461,9.363-4.461,9.087z"/>
		<path fill-rule="evenodd" clip-rule="evenodd" fill="#9D864D" d="M0.539,6.087c0-0.276-0.223-0.5-0.5-0.5
			c-0.275,0-0.5,0.224-0.5,0.5s0.225,0.5,0.5,0.5C0.316,6.587,0.539,6.363,0.539,6.087z"/>
		<path fill-rule="evenodd" clip-rule="evenodd" fill="#9D864D" d="M2.539,6.337c0-0.275-0.223-0.5-0.5-0.5
			c-0.275,0-0.5,0.225-0.5,0.5c0,0.277,0.225,0.5,0.5,0.5C2.316,6.837,2.539,6.614,2.539,6.337z"/>
		<path fill-rule="evenodd" clip-rule="evenodd" fill="#9D864D" d="M4.789,6.587c0-0.276-0.223-0.5-0.5-0.5
			c-0.275,0-0.5,0.224-0.5,0.5s0.225,0.5,0.5,0.5C4.566,7.087,4.789,6.863,4.789,6.587z"/>
		<path fill-rule="evenodd" clip-rule="evenodd" fill="#9D864D" d="M8.039,6.337c0-0.275-0.223-0.5-0.5-0.5
			c-0.275,0-0.5,0.225-0.5,0.5c0,0.277,0.225,0.5,0.5,0.5C7.816,6.837,8.039,6.614,8.039,6.337z"/>
		<path fill-rule="evenodd" clip-rule="evenodd" fill="#9D864D" d="M6.539,8.837c0-0.275-0.223-0.5-0.5-0.5
			c-0.275,0-0.5,0.225-0.5,0.5c0,0.276,0.225,0.5,0.5,0.5C6.316,9.337,6.539,9.113,6.539,8.837z"/>
		<path fill-rule="evenodd" clip-rule="evenodd" fill="#9D864D" d="M-7.461-2.913c0.277,0,0.5-0.224,0.5-0.5s-0.223-0.5-0.5-0.5
			c-0.275,0-0.5,0.224-0.5,0.5S-7.736-2.913-7.461-2.913z"/>
		<path fill-rule="evenodd" clip-rule="evenodd" fill="#9D864D" d="M-6.711-5.413c0.277,0,0.5-0.224,0.5-0.5s-0.223-0.5-0.5-0.5
			c-0.275,0-0.5,0.224-0.5,0.5S-6.986-5.413-6.711-5.413z"/>
		<path fill-rule="evenodd" clip-rule="evenodd" fill="#9D864D" d="M-4.461-3.663c0.277,0,0.5-0.224,0.5-0.5
			c0-0.275-0.223-0.5-0.5-0.5c-0.275,0-0.5,0.225-0.5,0.5C-4.961-3.887-4.736-3.663-4.461-3.663z"/>
		<path fill-rule="evenodd" clip-rule="evenodd" fill="#9D864D" d="M-4.461-6.413c0.277,0,0.5-0.224,0.5-0.5s-0.223-0.5-0.5-0.5
			c-0.275,0-0.5,0.224-0.5,0.5S-4.736-6.413-4.461-6.413z"/>
		<path fill-rule="evenodd" clip-rule="evenodd" fill="#9D864D" d="M-3.211-8.163c0.277,0,0.5-0.223,0.5-0.5
			c0-0.275-0.223-0.5-0.5-0.5c-0.275,0-0.5,0.225-0.5,0.5C-3.711-8.386-3.486-8.163-3.211-8.163z"/>
		<path fill-rule="evenodd" clip-rule="evenodd" fill="#9D864D" d="M-4.961-9.163c0.277,0,0.5-0.223,0.5-0.5
			c0-0.275-0.223-0.5-0.5-0.5c-0.275,0-0.5,0.225-0.5,0.5C-5.461-9.386-5.236-9.163-4.961-9.163z"/>
		<path fill-rule="evenodd" clip-rule="evenodd" fill="#9D864D" d="M-1.711-10.663c0.277,0,0.5-0.224,0.5-0.5
			c0-0.275-0.223-0.5-0.5-0.5c-0.275,0-0.5,0.225-0.5,0.5C-2.211-10.887-1.986-10.663-1.711-10.663z"/>
		<path fill-rule="evenodd" clip-rule="evenodd" fill="#9D864D" d="M0.039-10.163c0.277,0,0.5-0.223,0.5-0.5
			c0-0.275-0.223-0.5-0.5-0.5c-0.275,0-0.5,0.225-0.5,0.5C-0.461-10.386-0.236-10.163,0.039-10.163z"/>
		<path fill-rule="evenodd" clip-rule="evenodd" fill="#9D864D" d="M-1.711-9.163c0.277,0,0.5-0.223,0.5-0.5
			c0-0.275-0.223-0.5-0.5-0.5c-0.275,0-0.5,0.225-0.5,0.5C-2.211-9.386-1.986-9.163-1.711-9.163z"/>
		<path fill-rule="evenodd" clip-rule="evenodd" fill="#9D864D" d="M-2.461-6.663c0.277,0,0.5-0.224,0.5-0.5
			c0-0.275-0.223-0.5-0.5-0.5c-0.275,0-0.5,0.225-0.5,0.5C-2.961-6.887-2.736-6.663-2.461-6.663z"/>
		<path fill-rule="evenodd" clip-rule="evenodd" fill="#9D864D" d="M-3.211-0.663c0.277,0,0.5-0.224,0.5-0.5
			c0-0.275-0.223-0.5-0.5-0.5c-0.275,0-0.5,0.225-0.5,0.5C-3.711-0.887-3.486-0.663-3.211-0.663z"/>
		<path fill-rule="evenodd" clip-rule="evenodd" fill="#9D864D" d="M-7.211-0.163c0.277,0,0.5-0.223,0.5-0.5
			c0-0.275-0.223-0.5-0.5-0.5c-0.275,0-0.5,0.225-0.5,0.5C-7.711-0.386-7.486-0.163-7.211-0.163z"/>
		<path fill-rule="evenodd" clip-rule="evenodd" fill="#9D864D" d="M-8.211,5.087c0.277,0,0.5-0.224,0.5-0.5s-0.223-0.5-0.5-0.5
			c-0.275,0-0.5,0.224-0.5,0.5S-8.486,5.087-8.211,5.087z"/>
		<path fill-rule="evenodd" clip-rule="evenodd" fill="#9D864D" d="M-7.711,2.587c0.277,0,0.5-0.224,0.5-0.5s-0.223-0.5-0.5-0.5
			c-0.275,0-0.5,0.224-0.5,0.5S-7.986,2.587-7.711,2.587z"/>
		<path fill-rule="evenodd" clip-rule="evenodd" fill="#9D864D" d="M-9.711,1.587c0.277,0,0.5-0.224,0.5-0.5s-0.223-0.5-0.5-0.5
			c-0.275,0-0.5,0.224-0.5,0.5S-9.986,1.587-9.711,1.587z"/>
		<path fill-rule="evenodd" clip-rule="evenodd" fill="#9D864D" d="M-9.711-0.913c0.277,0,0.5-0.224,0.5-0.5s-0.223-0.5-0.5-0.5
			c-0.275,0-0.5,0.224-0.5,0.5S-9.986-0.913-9.711-0.913z"/>
		<path fill-rule="evenodd" clip-rule="evenodd" fill="#9D864D" d="M-10.211-3.913c0.277,0,0.5-0.224,0.5-0.5s-0.223-0.5-0.5-0.5
			c-0.275,0-0.5,0.224-0.5,0.5S-10.486-3.913-10.211-3.913z"/>
		<path fill-rule="evenodd" clip-rule="evenodd" fill="#9D864D" d="M-8.461-5.913c0.277,0,0.5-0.224,0.5-0.5s-0.223-0.5-0.5-0.5
			c-0.275,0-0.5,0.224-0.5,0.5S-8.736-5.913-8.461-5.913z"/>
		<path fill-rule="evenodd" clip-rule="evenodd" fill="#9D864D" d="M-5.461-0.913c0.277,0,0.5-0.224,0.5-0.5s-0.223-0.5-0.5-0.5
			c-0.275,0-0.5,0.224-0.5,0.5S-5.736-0.913-5.461-0.913z"/>
		<path fill-rule="evenodd" clip-rule="evenodd" fill="#9D864D" d="M-5.711,1.087c0.277,0,0.5-0.224,0.5-0.5s-0.223-0.5-0.5-0.5
			c-0.275,0-0.5,0.224-0.5,0.5S-5.986,1.087-5.711,1.087z"/>
		<path fill-rule="evenodd" clip-rule="evenodd" fill="#9D864D" d="M-5.961,3.337c0.277,0,0.5-0.224,0.5-0.5
			c0-0.275-0.223-0.5-0.5-0.5c-0.275,0-0.5,0.225-0.5,0.5C-6.461,3.113-6.236,3.337-5.961,3.337z"/>
		<path fill-rule="evenodd" clip-rule="evenodd" fill="#9D864D" d="M-5.711,6.587c0.277,0,0.5-0.224,0.5-0.5s-0.223-0.5-0.5-0.5
			c-0.275,0-0.5,0.224-0.5,0.5S-5.986,6.587-5.711,6.587z"/>
		<path fill-rule="evenodd" clip-rule="evenodd" fill="#9D864D" d="M-8.211,5.087c0.277,0,0.5-0.224,0.5-0.5s-0.223-0.5-0.5-0.5
			c-0.275,0-0.5,0.224-0.5,0.5S-8.486,5.087-8.211,5.087z"/>
		<path fill-rule="evenodd" clip-rule="evenodd" fill="#9D864D" d="M4.857-5.887C4.715-5.649,4.791-5.343,5.028-5.202
			c0.237,0.145,0.544,0.066,0.687-0.17C5.857-5.609,5.78-5.915,5.544-6.058C5.307-6.2,5-6.124,4.857-5.887z"/>
		<path fill-rule="evenodd" clip-rule="evenodd" fill="#9D864D" d="M6.615-3.956C6.473-3.721,6.55-3.413,6.785-3.271
			C7.023-3.128,7.33-3.207,7.473-3.442c0.142-0.238,0.065-0.545-0.172-0.686C7.064-4.271,6.757-4.194,6.615-3.956z"/>
		<path fill-rule="evenodd" clip-rule="evenodd" fill="#9D864D" d="M3.955-2.929C3.814-2.69,3.892-2.385,4.128-2.242
			c0.236,0.142,0.544,0.065,0.686-0.173C4.955-2.649,4.88-2.958,4.643-3.1C4.405-3.242,4.099-3.165,3.955-2.929z"/>
		<path fill-rule="evenodd" clip-rule="evenodd" fill="#9D864D" d="M6.314-1.513C6.172-1.277,6.248-0.97,6.485-0.827
			c0.237,0.142,0.544,0.066,0.687-0.172C7.313-1.235,7.237-1.543,7-1.685C6.764-1.827,6.455-1.75,6.314-1.513z"/>
		<path fill-rule="evenodd" clip-rule="evenodd" fill="#9D864D" d="M7.172,0.46C7.029,0.695,7.105,1.003,7.343,1.146
			s0.544,0.066,0.687-0.172c0.142-0.236,0.065-0.545-0.172-0.686C7.619,0.146,7.313,0.223,7.172,0.46z"/>
		<path fill-rule="evenodd" clip-rule="evenodd" fill="#9D864D" d="M8.93-0.526C8.787-0.29,8.864,0.017,9.101,0.159
			c0.237,0.143,0.544,0.066,0.687-0.172c0.142-0.236,0.065-0.544-0.171-0.686C9.378-0.841,9.071-0.765,8.93-0.526z"/>
		<path fill-rule="evenodd" clip-rule="evenodd" fill="#9D864D" d="M8.543,3.032C8.401,3.269,8.478,3.575,8.715,3.718
			C8.951,3.86,9.259,3.783,9.4,3.547C9.543,3.31,9.466,3.003,9.229,2.86C8.992,2.718,8.686,2.793,8.543,3.032z"/>
		<path fill-rule="evenodd" clip-rule="evenodd" fill="#9D864D" d="M7.214,4.275C7.071,4.512,7.147,4.819,7.386,4.961
			C7.621,5.103,7.929,5.026,8.071,4.79s0.065-0.544-0.172-0.688C7.662,3.961,7.356,4.038,7.214,4.275z"/>
		<path fill-rule="evenodd" clip-rule="evenodd" fill="#9D864D" d="M7.257,2.261C7.114,2.497,7.191,2.804,7.429,2.946
			c0.235,0.143,0.543,0.065,0.686-0.171C8.257,2.538,8.18,2.23,7.943,2.089C7.705,1.946,7.399,2.023,7.257,2.261z"/>
		<path fill-rule="evenodd" clip-rule="evenodd" fill="#9D864D" d="M5.498,0.331C5.357,0.567,5.435,0.874,5.671,1.017
			c0.236,0.142,0.544,0.066,0.686-0.172c0.142-0.237,0.066-0.543-0.171-0.686S5.642,0.094,5.498,0.331z"/>
		<path fill-rule="evenodd" clip-rule="evenodd" fill="#9D864D" d="M0.741-3.4C0.599-3.163,0.676-2.857,0.912-2.716
			c0.237,0.145,0.543,0.066,0.687-0.17C1.74-3.123,1.664-3.429,1.427-3.571C1.19-3.716,0.883-3.638,0.741-3.4z"/>
		<path fill-rule="evenodd" clip-rule="evenodd" fill="#9D864D" d="M2.371-7.088c-0.143,0.237-0.065,0.544,0.17,0.687
			C2.779-6.26,3.086-6.336,3.229-6.573C3.369-6.809,3.294-7.117,3.057-7.26C2.82-7.401,2.513-7.323,2.371-7.088z"/>
		<path fill-rule="evenodd" clip-rule="evenodd" fill="#9D864D" d="M-1.615-10.647c-0.143,0.237-0.066,0.545,0.171,0.688
			c0.237,0.141,0.543,0.064,0.686-0.173c0.143-0.235,0.066-0.544-0.171-0.686C-1.168-10.96-1.474-10.884-1.615-10.647z"/>
		<path fill-rule="evenodd" clip-rule="evenodd" fill="#9D864D" d="M0.271-8.932C0.128-8.696,0.205-8.389,0.441-8.247
			c0.237,0.145,0.544,0.066,0.687-0.17C1.271-8.655,1.193-8.96,0.955-9.103C0.72-9.245,0.412-9.169,0.271-8.932z"/>
		<path fill-rule="evenodd" clip-rule="evenodd" fill="#9D864D" d="M2.157-10.132C2.015-9.894,2.092-9.588,2.328-9.446
			C2.565-9.305,2.871-9.38,3.015-9.618c0.143-0.236,0.065-0.543-0.172-0.687C2.606-10.446,2.3-10.368,2.157-10.132z"/>
		<path fill-rule="evenodd" clip-rule="evenodd" fill="#9D864D" d="M4.301-8.845C4.158-8.608,4.235-8.302,4.472-8.159
			c0.237,0.143,0.544,0.066,0.687-0.172C5.3-8.567,5.224-8.875,4.986-9.017C4.75-9.159,4.442-9.082,4.301-8.845z"/>
		<path fill-rule="evenodd" clip-rule="evenodd" fill="#9D864D" d="M7.13-7.729C6.987-7.493,7.064-7.187,7.302-7.044
			c0.236,0.141,0.543,0.066,0.686-0.172C8.13-7.452,8.053-7.76,7.816-7.901C7.578-8.044,7.272-7.967,7.13-7.729z"/>
		<path fill-rule="evenodd" clip-rule="evenodd" fill="#9D864D" d="M7.944-5.2C7.802-4.964,7.879-4.655,8.116-4.515
			C8.353-4.372,8.659-4.45,8.802-4.686C8.944-4.924,8.867-5.229,8.63-5.372C8.394-5.513,8.087-5.438,7.944-5.2z"/>
		<path fill-rule="evenodd" clip-rule="evenodd" fill="#9D864D" d="M2.113-5.202C1.971-4.965,2.048-4.658,2.284-4.516
			C2.521-4.372,2.828-4.45,2.971-4.687C3.112-4.924,3.035-5.229,2.8-5.372C2.563-5.515,2.255-5.438,2.113-5.202z"/>
		<path fill-rule="evenodd" clip-rule="evenodd" fill="#9D864D" d="M0.527-6.446C0.385-6.207,0.462-5.901,0.698-5.759
			c0.237,0.141,0.544,0.065,0.687-0.172C1.526-6.167,1.45-6.474,1.213-6.616C0.977-6.759,0.669-6.681,0.527-6.446z"/>
		<path fill-rule="evenodd" clip-rule="evenodd" fill="#9D864D" d="M-1.273-7.817C-1.417-7.581-1.34-7.273-1.103-7.132
			c0.238,0.142,0.544,0.066,0.687-0.171C-0.274-7.54-0.351-7.847-0.588-7.99C-0.824-8.132-1.132-8.055-1.273-7.817z"/>
		<path fill-rule="evenodd" clip-rule="evenodd" fill="#9D864D" d="M-4.188-9.274C-4.331-9.039-4.254-8.731-4.017-8.59
			c0.236,0.144,0.543,0.064,0.686-0.171c0.143-0.237,0.065-0.544-0.171-0.686C-3.739-9.589-4.047-9.513-4.188-9.274z"/>
		<path fill-rule="evenodd" clip-rule="evenodd" fill="#9D864D" d="M-1.615-10.647c-0.143,0.237-0.066,0.545,0.171,0.688
			c0.237,0.141,0.543,0.064,0.686-0.173c0.143-0.235,0.066-0.544-0.171-0.686C-1.168-10.96-1.474-10.884-1.615-10.647z"/>
	</g>
</symbol>
<use xlink:href="#向日葵"  width="49.924" height="51.557" x="-24.962" y="-25.778" transform="matrix(16.0119 0 0 -16.0119 563.0396 501.386)" overflow="visible"/>
</svg>
